<?xml version="1.0" encoding="utf-8"?>
<!-- Generator: Adobe Illustrator 21.1.0, SVG Export Plug-In . SVG Version: 6.00 Build 0)  -->
<svg version="1.1" id="Layer_1" xmlns="http://www.w3.org/2000/svg" xmlns:xlink="http://www.w3.org/1999/xlink" x="0px" y="0px"
	 viewBox="0 0 1000 1000" style="enable-background:new 0 0 1000 1000;" xml:space="preserve">
<style type="text/css">
	.st0{fill:#FFC21D;}
	.st1{fill:none;stroke:#02435F;stroke-width:4;stroke-miterlimit:10;}
	.st2{fill:#02435F;}
	.st3{opacity:0.6;fill:none;stroke:#FFC21D;stroke-width:7;stroke-miterlimit:10;}
	.st4{fill:none;stroke:#02435F;stroke-width:9;stroke-miterlimit:10;}
	.st5{fill:none;stroke:#000000;stroke-width:6;stroke-miterlimit:10;}
	.st6{opacity:0.35;fill:#444545;}
	.st7{fill:none;stroke:#02435F;stroke-width:9;stroke-linecap:round;stroke-linejoin:round;stroke-miterlimit:10;}
	.st8{fill:none;stroke:#02435F;stroke-width:8;stroke-miterlimit:10;}
	.st9{fill:none;stroke:#02435F;stroke-width:8;stroke-linecap:round;stroke-linejoin:round;stroke-miterlimit:10;}
	.st10{fill:#FFFFFF;stroke:#02435F;stroke-width:9;stroke-miterlimit:10;}
</style>
<circle class="st0" cx="728.7" cy="596.3" r="7.4"/>
<circle class="st0" cx="765.7" cy="596.3" r="7.4"/>
<path class="st1" d="M736,487.1"/>
<path class="st1" d="M816.8,327.8"/>
<path class="st1" d="M847.8,327.8"/>
<path class="st2" d="M389.6,209h-53c-1.5,0-2.8-1.3-2.8-2.8v-1.3c0-1.5,1.3-2.8,2.8-2.8h53c1.5,0,2.8,1.3,2.8,2.8v1.3
	C392.4,207.7,391.1,209,389.6,209z"/>
<path class="st0" d="M313.4,292.2L293,271.8c-1-1-1-2.7,0-3.8l0.8-0.8c1-1,2.7-1,3.8,0l20.4,20.4c1,1,1,2.7,0,3.8l-0.8,0.8
	C316.1,293.2,314.4,293.2,313.4,292.2z"/>
<path class="st0" d="M318,271.8l-20.4,20.4c-1,1-2.7,1-3.8,0l-0.8-0.8c-1-1-1-2.7,0-3.8l20.4-20.4c1-1,2.7-1,3.8,0l0.8,0.8
	C319,269,319,270.8,318,271.8z"/>
<path class="st2" d="M770.1,191.8h-28.8c-1.5,0-2.7-1.2-2.7-2.7v-1.2c0-1.5,1.2-2.7,2.7-2.7h28.8c1.5,0,2.7,1.2,2.7,2.7v1.2
	C772.8,190.5,771.6,191.8,770.1,191.8z"/>
<path class="st2" d="M759,174.1v28.8c0,1.5-1.2,2.7-2.7,2.7h-1.2c-1.5,0-2.7-1.2-2.7-2.7v-28.8c0-1.5,1.2-2.7,2.7-2.7h1.2
	C757.8,171.4,759,172.6,759,174.1z"/>
<path class="st0" d="M548.4,254.2C548.4,254.2,548.4,254.2,548.4,254.2c0,0-0.1-0.3-0.2-0.4c-3.8-8-12.7-11.6-20-8.3
	c-7.5,3.4-10.5,12.8-6.8,21l27.5-12.6"/>
<path class="st0" d="M215.2,721.3h-38.6c-1.5,0-2.8-1.3-2.8-2.8v-1.3c0-1.5,1.3-2.8,2.8-2.8h38.6c1.5,0,2.8,1.3,2.8,2.8v1.3
	C218,720.1,216.8,721.3,215.2,721.3z"/>
<path class="st0" d="M138.7,555.3h-28.8c-1.5,0-2.7-1.2-2.7-2.7v-1.2c0-1.5,1.2-2.7,2.7-2.7h28.8c1.5,0,2.7,1.2,2.7,2.7v1.2
	C141.4,554,140.1,555.3,138.7,555.3z"/>
<path class="st0" d="M127.5,537.6v28.8c0,1.5-1.2,2.7-2.7,2.7h-1.2c-1.5,0-2.7-1.2-2.7-2.7v-28.8c0-1.5,1.2-2.7,2.7-2.7h1.2
	C126.3,534.9,127.5,536.1,127.5,537.6z"/>
<rect x="846.5" y="476.4" transform="matrix(0.7071 0.7071 -0.7071 0.7071 596.5657 -463.8499)" class="st3" width="23.5" height="23.5"/>
<circle class="st2" cx="836.6" cy="736.8" r="12.2"/>
<path class="st2" d="M892.1,304.4L881,293.4c-1-1-1-2.7,0-3.7l0.8-0.8c1-1,2.7-1,3.7,0l11.1,11.1c1,1,1,2.7,0,3.7l-0.8,0.8
	C894.7,305.5,893.1,305.5,892.1,304.4z"/>
<polygon class="st4" points="602.3,686.7 348.2,686.7 365.4,402 586.4,402 "/>
<circle class="st0" cx="428.4" cy="453.6" r="9.8"/>
<circle class="st0" cx="525.2" cy="453.6" r="9.8"/>
<path class="st5" d="M429.8,487.1"/>
<line class="st5" x1="476.8" y1="523.2" x2="476.8" y2="523.2"/>
<path class="st5" d="M434.5,542.4"/>
<circle class="st6" cx="728.7" cy="596.3" r="3.7"/>
<path class="st7" d="M428.4,452.5v-64.8c0-25.8,21.1-47,47-47h2.9c25.8,0,47,21.1,47,47v64.8"/>
<line class="st5" x1="709.1" y1="579.6" x2="709.1" y2="579.6"/>
<rect x="691.1" y="576.6" class="st8" width="110.9" height="108.8"/>
<line class="st5" x1="771.3" y1="551.2" x2="771.3" y2="551.2"/>
<path class="st9" d="M728.7,595.2v-24.8c0-9.9,8.1-17.9,17.9-17.9h1.1c9.9,0,17.9,8.1,17.9,17.9v24.8"/>
<line class="st5" x1="241.1" y1="557.5" x2="241.1" y2="557.5"/>
<path class="st5" d="M278.6,568.6"/>
<line class="st5" x1="306.6" y1="590.1" x2="306.6" y2="590.1"/>
<polyline class="st4" points="409.2,517.9 434.5,517.9 434.5,690.4 "/>
<rect x="234.2" y="517.9" class="st10" width="172.9" height="169.5"/>
<circle class="st0" cx="293.9" cy="550.5" r="7.6"/>
<circle class="st0" cx="351.6" cy="550.5" r="7.6"/>
<path class="st7" d="M293.8,547.4v-38.6c0-15.4,12.6-28,28-28h1.7c15.4,0,28,12.6,28,28v38.6"/>
<polyline class="st4" points="586.4,402 618.1,404.5 653.5,685.4 602.3,686.7 621.5,653.5 603.7,402.7 "/>
<line class="st4" x1="621.5" y1="653.5" x2="653.5" y2="685.4"/>
</svg>
