<?xml version="1.0" encoding="utf-8"?>
<!-- Generator: Adobe Illustrator 21.1.0, SVG Export Plug-In . SVG Version: 6.00 Build 0)  -->
<svg version="1.1" id="Layer_1" xmlns="http://www.w3.org/2000/svg" xmlns:xlink="http://www.w3.org/1999/xlink" x="0px" y="0px"
	 viewBox="0 0 1000 1000" style="enable-background:new 0 0 1000 1000;" xml:space="preserve">
<style type="text/css">
	.st0{opacity:0.51;fill:#999999;}
	.st1{fill:#FFFFFF;}
	.st2{fill:#FFC21D;}
	.st3{fill:#02435F;}
	.st4{opacity:0.6;fill:none;stroke:#FFC21D;stroke-width:7;stroke-miterlimit:10;}
</style>
<path class="st0" d="M592.7,540.1L433.3,715.4c-16.8,18.5-45.7,19.9-64.2,3l-8.2-7.5c-18.5-16.8-19.9-45.7-3-64.2l159.4-175.3
	c16.8-18.5,45.7-19.9,64.2-3l8.2,7.5C608.1,492.8,609.5,521.7,592.7,540.1z"/>
<g>
	<path class="st1" d="M399.9,701.5c-0.3,0.1-0.6,0-0.9-0.1l-22.4-9.9l11.9,21.4c0.2,0.3,0.2,0.6,0.2,0.9s-0.2,0.6-0.4,0.9
		c-0.2,0.3-0.5,0.4-0.9,0.5c-0.3,0.1-0.7,0-1-0.1l-28.9-13.8c-0.3-0.2-0.6-0.5-0.8-0.9c-0.2-0.4-0.1-0.8,0-1.2
		c0.2-0.4,0.5-0.6,0.9-0.8c0.4-0.1,0.8-0.1,1.2,0.1l24.5,11.7L371.6,689c-0.2-0.3-0.2-0.6-0.2-0.9c0-0.3,0.2-0.6,0.4-0.9
		c0.2-0.2,0.5-0.4,0.8-0.5c0.3-0.1,0.6,0,0.9,0.1l22.2,9.8l-14-23.3c-0.2-0.4-0.3-0.8-0.2-1.2c0.1-0.4,0.3-0.7,0.7-0.9
		c0.4-0.2,0.8-0.3,1.2-0.2c0.4,0.1,0.7,0.3,1,0.7l16.5,27.4c0.2,0.3,0.2,0.6,0.2,0.9c0,0.3-0.2,0.6-0.4,0.9
		C400.5,701.3,400.2,701.4,399.9,701.5z"/>
	<path class="st1" d="M429.1,666.7c0.4,0.1,0.7,0.4,0.9,0.8c0.2,0.4,0.2,0.8,0.1,1.2c0,0.1-0.1,0.2-0.1,0.3s-0.1,0.2-0.2,0.2
		c-0.2,0.2-0.5,0.4-0.8,0.5c-0.3,0.1-0.6,0.1-0.9,0l-8.3-3.1l-10.2,11.2l3.9,8c0.2,0.4,0.2,0.8,0.1,1.2c-0.1,0.4-0.4,0.7-0.8,0.9
		s-0.8,0.2-1.2,0.1c-0.4-0.1-0.7-0.4-0.9-0.8l-14.4-29.7c-0.1-0.3-0.2-0.6-0.1-0.9c0-0.3,0.2-0.6,0.4-0.8c0.2-0.2,0.5-0.4,0.8-0.5
		c0.3-0.1,0.6-0.1,0.9,0L429.1,666.7z M408,674.7l8.5-9.4l-15.9-5.9L408,674.7z"/>
	<path class="st1" d="M427.5,621.5c0.3-0.3,0.6-0.5,1.1-0.5c0.4,0,0.8,0.1,1.1,0.4c0.3,0.3,0.5,0.6,0.5,1.1c0,0.4-0.1,0.8-0.4,1.1
		l-7.2,8l21.5,19.6c0.3,0.3,0.5,0.6,0.5,1.1c0,0.4-0.1,0.8-0.4,1.1c-0.3,0.3-0.6,0.5-1.1,0.5c-0.4,0-0.8-0.1-1.1-0.4l-21.5-19.6
		l-7.2,8c-0.3,0.3-0.6,0.5-1.1,0.5c-0.4,0-0.8-0.1-1.1-0.4c-0.3-0.3-0.5-0.6-0.5-1.1c0-0.4,0.1-0.8,0.4-1.1L427.5,621.5z"/>
	<path class="st1" d="M470.8,619.4c0.3-0.3,0.6-0.5,1.1-0.5c0.4,0,0.8,0.1,1.1,0.4c0.3,0.3,0.5,0.6,0.5,1.1c0,0.4-0.1,0.8-0.4,1.1
		l-14.5,15.9c-0.3,0.3-0.6,0.5-1.1,0.5c-0.4,0-0.8-0.1-1.1-0.4l-22.7-20.6c-0.3-0.3-0.5-0.6-0.5-1.1c0-0.4,0.1-0.8,0.4-1.1
		l14.5-15.9c0.3-0.3,0.6-0.5,1.1-0.5c0.4,0,0.8,0.1,1.1,0.4c0.3,0.3,0.5,0.6,0.5,1.1c0,0.4-0.1,0.8-0.4,1.1L437,615.6l9.1,8.2
		l11.4-12.5c0.3-0.3,0.6-0.5,1.1-0.5c0.4,0,0.8,0.1,1.1,0.4c0.3,0.3,0.5,0.6,0.5,1.1c0,0.4-0.1,0.8-0.4,1.1l-11.4,12.5l9.1,8.2
		L470.8,619.4z"/>
	<path class="st1" d="M477.8,593.2l15.1,3c0.4,0.1,0.7,0.3,1,0.6c0.2,0.4,0.3,0.7,0.2,1.1c0,0.1,0,0.3-0.1,0.4
		c-0.1,0.1-0.2,0.2-0.2,0.3c-0.2,0.2-0.4,0.3-0.6,0.4c-0.3,0.1-0.5,0.1-0.8,0l-16.7-3.3c-0.1,0.1-0.1,0.1-0.2,0.2
		c-0.1,0.1-0.2,0.2-0.2,0.3l-6.2,6.8l10.2,9.3c0.3,0.3,0.5,0.6,0.5,1.1c0,0.4-0.1,0.8-0.4,1.1c-0.3,0.3-0.6,0.5-1.1,0.5
		c-0.4,0-0.8-0.1-1.1-0.4l-22.7-20.6c-0.3-0.3-0.5-0.6-0.5-1.1c0-0.4,0.1-0.8,0.4-1.1l7.2-8c1.5-1.7,2.9-2.9,4-3.8
		c1.2-0.9,2.3-1.5,3.4-1.8c1.3-0.3,2.5-0.3,3.8,0.2c1.2,0.4,2.5,1.3,3.9,2.5c1.3,1.2,2.3,2.4,2.8,3.6c0.5,1.2,0.7,2.4,0.5,3.7
		c-0.1,0.7-0.4,1.5-0.7,2.2C479,591.4,478.5,592.3,477.8,593.2z M466.7,601.1l6.2-6.8c2.6-2.9,4-5.1,4.1-6.5
		c0.1-1.4-0.7-2.9-2.4-4.4c-1.9-1.7-3.6-2.4-5.1-1.8c-1.5,0.5-3.4,2-5.6,4.5l-6.2,6.8L466.7,601.1z"/>
	<path class="st1" d="M523.9,565c-0.4,0.1-0.7,0-1-0.2l-22.7-13.5l10.2,23.2c0.1,0.3,0.2,0.6,0.1,0.9c-0.1,0.3-0.2,0.6-0.4,0.8
		c-0.2,0.2-0.4,0.4-0.7,0.4c-0.3,0.1-0.6,0.1-0.9,0l-24.1-7.9l15.6,21.3c0.3,0.3,0.4,0.7,0.3,1.1c-0.1,0.4-0.3,0.8-0.6,1
		c-0.3,0.3-0.7,0.4-1.1,0.3c-0.4-0.1-0.8-0.3-1-0.6l-18.5-25.2c-0.2-0.3-0.3-0.6-0.3-0.9c0-0.3,0.1-0.6,0.3-0.9
		c0.2-0.3,0.5-0.5,0.8-0.6c0.3-0.1,0.6-0.1,1,0l25.4,8.4l-10.7-24.5c-0.1-0.3-0.2-0.6-0.1-0.9c0.1-0.3,0.2-0.6,0.5-0.8
		c0.2-0.2,0.5-0.3,0.8-0.4c0.3,0,0.6,0.1,0.9,0.2l26.8,16.1c0.4,0.2,0.6,0.5,0.7,0.9c0.1,0.4,0,0.8-0.2,1.1c0,0,0,0.1,0,0.1
		c0,0-0.1,0.1-0.1,0.1C524.6,564.8,524.3,565,523.9,565z"/>
	<path class="st1" d="M547,537c0.4,0.1,0.7,0.4,0.9,0.8c0.2,0.4,0.2,0.8,0.1,1.2c0,0.1-0.1,0.2-0.1,0.3c-0.1,0.1-0.1,0.2-0.2,0.2
		c-0.2,0.2-0.5,0.4-0.8,0.5c-0.3,0.1-0.6,0.1-0.9,0l-8.3-3.1l-10.2,11.2l3.9,8c0.2,0.4,0.2,0.8,0.1,1.2c-0.1,0.4-0.4,0.7-0.8,0.9
		c-0.4,0.2-0.8,0.2-1.2,0.1c-0.4-0.1-0.7-0.4-0.9-0.8l-14.4-29.7c-0.1-0.3-0.2-0.6-0.1-0.9c0-0.3,0.2-0.6,0.4-0.8s0.5-0.4,0.8-0.5
		c0.3-0.1,0.6-0.1,0.9,0L547,537z M525.9,545.1l8.5-9.4l-15.9-5.9L525.9,545.1z"/>
	<path class="st1" d="M552.3,511.3l15.1,3c0.4,0.1,0.7,0.3,1,0.6c0.2,0.4,0.3,0.7,0.2,1.1c0,0.1,0,0.3-0.1,0.4
		c-0.1,0.1-0.2,0.2-0.2,0.3c-0.2,0.2-0.4,0.3-0.6,0.4c-0.3,0.1-0.5,0.1-0.8,0l-16.7-3.3c-0.1,0.1-0.1,0.1-0.2,0.2
		c-0.1,0.1-0.2,0.2-0.2,0.3l-6.2,6.8l10.2,9.3c0.3,0.3,0.5,0.6,0.5,1.1c0,0.4-0.1,0.8-0.4,1.1c-0.3,0.3-0.6,0.5-1.1,0.5
		c-0.4,0-0.8-0.1-1.1-0.4l-22.7-20.6c-0.3-0.3-0.5-0.6-0.5-1.1c0-0.4,0.1-0.8,0.4-1.1l7.2-8c1.5-1.7,2.9-2.9,4-3.8
		c1.2-0.9,2.3-1.5,3.4-1.8c1.3-0.3,2.5-0.3,3.8,0.2c1.2,0.4,2.5,1.2,3.9,2.5c1.3,1.2,2.3,2.4,2.8,3.6c0.5,1.2,0.7,2.4,0.5,3.7
		c-0.1,0.7-0.4,1.5-0.7,2.2C553.4,509.5,552.9,510.4,552.3,511.3z M541.2,519.2l6.2-6.8c2.6-2.9,4-5.1,4.1-6.5
		c0.1-1.4-0.7-2.9-2.4-4.4c-1.9-1.7-3.6-2.4-5.1-1.8c-1.5,0.5-3.4,2-5.6,4.5l-6.2,6.8L541.2,519.2z"/>
	<path class="st1" d="M587.6,491.5c0.4-0.1,0.8,0,1.1,0.3c0.3,0.2,0.6,0.6,0.6,1c0.1,0.2,0,0.5,0,0.7c-0.1,0.2-0.2,0.4-0.3,0.6
		c-0.1,0.1-0.2,0.2-0.4,0.3c-0.1,0.1-0.3,0.1-0.5,0.2l-23.6,4.3l9.9,9c0.3,0.3,0.5,0.6,0.5,1.1c0,0.4-0.1,0.8-0.4,1.1
		c-0.3,0.3-0.6,0.5-1.1,0.5c-0.4,0-0.8-0.1-1.1-0.4l-22.7-20.6c-0.3-0.3-0.5-0.6-0.5-1.1c0-0.4,0.1-0.8,0.4-1.1
		c0.3-0.3,0.6-0.5,1.1-0.5c0.4,0,0.8,0.1,1.1,0.4l9.9,9l2-23.9c0-0.4,0.2-0.8,0.5-1.1c0.3-0.3,0.7-0.4,1.1-0.4
		c0.4,0,0.8,0.2,1.1,0.5c0.3,0.3,0.4,0.7,0.4,1.1l-2,23.1L587.6,491.5z"/>
</g>
<polyline class="st2" points="549.1,365.7 549.1,459.5 650.4,456.7 "/>
<g>
	<g>
		<g>
			<path class="st3" d="M322.4,654.5c-3.5,0-6.3-2.8-6.3-6.3V384.7c0-17.4,14.2-31.6,31.7-31.6h201.3c3.5,0,6.3,2.8,6.3,6.3
				c0,3.5-2.8,6.3-6.3,6.3H347.8c-10.5,0-19,8.5-19,18.9v263.5C328.7,651.7,325.9,654.5,322.4,654.5z"/>
		</g>
		<g>
			<path class="st3" d="M625,773.6H347.8c-17.5,0-31.7-14.2-31.7-31.6v-91.6c0-3.5,2.8-6.3,6.3-6.3s6.3,2.8,6.3,6.3v91.6
				c0,10.4,8.5,18.9,19,18.9H625c10.5,0,19-8.5,19-18.9V463c0-3.5,2.8-6.3,6.3-6.3s6.3,2.8,6.3,6.3v279
				C656.7,759.5,642.5,773.6,625,773.6z"/>
		</g>
		<g>
			<path class="st3" d="M650.4,469.4H549.1c-3.5,0-6.3-2.8-6.3-6.3V362.2c0-3.5,2.8-6.3,6.3-6.3s6.3,2.8,6.3,6.3v94.6h94.9
				c3.5,0,6.3,2.8,6.3,6.3C656.7,466.5,653.9,469.4,650.4,469.4z"/>
		</g>
		<g>
			<path class="st3" d="M650.4,469.4c-1.7,0-3.3-0.6-4.5-1.9L544.6,363.8c-2.4-2.5-2.4-6.5,0.1-8.9c2.5-2.4,6.5-2.4,9,0.1
				l101.3,103.6c2.4,2.5,2.4,6.5-0.1,8.9C653.6,468.8,652,469.4,650.4,469.4z"/>
		</g>
	</g>
</g>
<g>
	<g>
		<path class="st3" d="M550.7,641.7H405.8c-2.9,0-5.3-2.4-5.3-5.4c0-3,2.4-5.4,5.3-5.4h144.9c2.9,0,5.3,2.4,5.3,5.4
			C556,639.3,553.7,641.7,550.7,641.7z"/>
	</g>
	<g>
		<path class="st3" d="M550.7,584.7H405.8c-2.9,0-5.3-2.4-5.3-5.4c0-3,2.4-5.4,5.3-5.4h144.9c2.9,0,5.3,2.4,5.3,5.4
			C556,582.3,553.7,584.7,550.7,584.7z"/>
	</g>
	<g>
		<path class="st3" d="M550.7,530.1H405.8c-2.9,0-5.3-2.4-5.3-5.4c0-3,2.4-5.4,5.3-5.4h144.9c2.9,0,5.3,2.4,5.3,5.4
			C556,527.6,553.7,530.1,550.7,530.1z"/>
	</g>
</g>
<path class="st2" d="M170,705.7h-38.6c-1.5,0-2.8-1.3-2.8-2.8v-1.3c0-1.5,1.3-2.8,2.8-2.8H170c1.5,0,2.8,1.3,2.8,2.8v1.3
	C172.8,704.4,171.5,705.7,170,705.7z"/>
<path class="st3" d="M267.7,241.3h-53c-1.5,0-2.8-1.3-2.8-2.8v-1.3c0-1.5,1.3-2.8,2.8-2.8h53c1.5,0,2.8,1.3,2.8,2.8v1.3
	C270.5,240,269.3,241.3,267.7,241.3z"/>
<path class="st2" d="M93.5,539.6H64.6c-1.5,0-2.7-1.2-2.7-2.7v-1.2c0-1.5,1.2-2.7,2.7-2.7h28.8c1.5,0,2.7,1.2,2.7,2.7v1.2
	C96.1,538.4,94.9,539.6,93.5,539.6z"/>
<path class="st2" d="M82.3,521.9v28.8c0,1.5-1.2,2.7-2.7,2.7h-1.2c-1.5,0-2.7-1.2-2.7-2.7v-28.8c0-1.5,1.2-2.7,2.7-2.7h1.2
	C81.1,519.3,82.3,520.5,82.3,521.9z"/>
<path class="st2" d="M191.5,324.4l-20.4-20.4c-1-1-1-2.7,0-3.8l0.8-0.8c1-1,2.7-1,3.8,0l20.4,20.4c1,1,1,2.7,0,3.8l-0.8,0.8
	C194.3,325.5,192.6,325.5,191.5,324.4z"/>
<path class="st2" d="M196.2,304.1l-20.4,20.4c-1,1-2.7,1-3.8,0l-0.8-0.8c-1-1-1-2.7,0-3.8l20.4-20.4c1-1,2.7-1,3.8,0l0.8,0.8
	C197.2,301.3,197.2,303,196.2,304.1z"/>
<rect x="826.5" y="445.2" transform="matrix(0.7071 0.7071 -0.7071 0.7071 568.6252 -458.9237)" class="st4" width="23.5" height="23.5"/>
<circle class="st3" cx="757.3" cy="684.9" r="12.2"/>
<path class="st3" d="M655.1,171.1h-28.8c-1.5,0-2.7-1.2-2.7-2.7v-1.2c0-1.5,1.2-2.7,2.7-2.7h28.8c1.5,0,2.7,1.2,2.7,2.7v1.2
	C657.8,169.9,656.6,171.1,655.1,171.1z"/>
<path class="st3" d="M644,153.4v28.8c0,1.5-1.2,2.7-2.7,2.7h-1.2c-1.5,0-2.7-1.2-2.7-2.7v-28.8c0-1.5,1.2-2.7,2.7-2.7h1.2
	C642.8,150.7,644,151.9,644,153.4z"/>
<path class="st2" d="M433.4,233.5C433.4,233.5,433.5,233.6,433.4,233.5c0,0-0.1-0.3-0.2-0.4c-3.8-8-12.7-11.6-20-8.3
	c-7.5,3.4-10.5,12.8-6.8,21l27.5-12.6"/>
<path class="st3" d="M760.6,328.3l-11.1-11.1c-1-1-1-2.7,0-3.7l0.8-0.8c1-1,2.7-1,3.7,0l11.1,11.1c1,1,1,2.7,0,3.7l-0.8,0.8
	C763.2,329.3,761.6,329.3,760.6,328.3z"/>
</svg>
