<?xml version="1.0" encoding="utf-8"?>
<!-- Generator: Adobe Illustrator 21.1.0, SVG Export Plug-In . SVG Version: 6.00 Build 0)  -->
<svg version="1.1" id="Layer_1" xmlns="http://www.w3.org/2000/svg" xmlns:xlink="http://www.w3.org/1999/xlink" x="0px" y="0px"
	 viewBox="0 0 1000 1000" style="enable-background:new 0 0 1000 1000;" xml:space="preserve">
<style type="text/css">
	.st0{fill:#FFC21D;}
	.st1{fill:#02435F;}
	.st2{opacity:0.6;fill:none;stroke:#FFC21D;stroke-width:7;stroke-miterlimit:10;}
	.st3{fill:none;stroke:#02435F;stroke-width:9;stroke-miterlimit:10;}
	.st4{fill:#FFFFFF;stroke:#02435F;stroke-width:9;stroke-miterlimit:10;}
	.st5{fill:#3F4E6D;}
</style>
<polygon class="st0" points="584.7,382.5 584.7,408.3 614.2,408.3 "/>
<path class="st1" d="M310.3,647.9h-65.9c-1.5,0-2.8-1.3-2.8-2.8v0c0-1.5,1.3-2.8,2.8-2.8h65.9c1.5,0,2.8,1.3,2.8,2.8v0
	C313.1,646.6,311.8,647.9,310.3,647.9z"/>
<path class="st1" d="M357.6,240.3h-53c-1.5,0-2.8-1.3-2.8-2.8v-1.3c0-1.5,1.3-2.8,2.8-2.8h53c1.5,0,2.8,1.3,2.8,2.8v1.3
	C360.5,239,359.2,240.3,357.6,240.3z"/>
<path class="st0" d="M281.4,323.4L261.1,303c-1-1-1-2.7,0-3.8l0.8-0.8c1-1,2.7-1,3.8,0l20.4,20.4c1,1,1,2.7,0,3.8l-0.8,0.8
	C284.2,324.5,282.5,324.5,281.4,323.4z"/>
<path class="st0" d="M286.1,303l-20.4,20.4c-1,1-2.7,1-3.8,0l-0.8-0.8c-1-1-1-2.7,0-3.8l20.4-20.4c1-1,2.7-1,3.8,0l0.8,0.8
	C287.1,300.3,287.1,302,286.1,303z"/>
<path class="st1" d="M738.2,223h-28.8c-1.5,0-2.7-1.2-2.7-2.7v-1.2c0-1.5,1.2-2.7,2.7-2.7h28.8c1.5,0,2.7,1.2,2.7,2.7v1.2
	C740.9,221.8,739.7,223,738.2,223z"/>
<path class="st1" d="M727.1,205.3v28.8c0,1.5-1.2,2.7-2.7,2.7h-1.2c-1.5,0-2.7-1.2-2.7-2.7v-28.8c0-1.5,1.2-2.7,2.7-2.7h1.2
	C725.9,202.6,727.1,203.9,727.1,205.3z"/>
<path class="st0" d="M516.5,285.4C516.5,285.4,516.5,285.5,516.5,285.4c0,0-0.1-0.3-0.2-0.4c-3.8-8-12.7-11.6-20-8.3
	c-7.5,3.4-10.5,12.8-6.8,21l27.5-12.6"/>
<path class="st0" d="M183.3,752.6h-38.6c-1.5,0-2.8-1.3-2.8-2.8v-1.3c0-1.5,1.3-2.8,2.8-2.8h38.6c1.5,0,2.8,1.3,2.8,2.8v1.3
	C186.1,751.3,184.8,752.6,183.3,752.6z"/>
<path class="st0" d="M106.8,586.5H77.9c-1.5,0-2.7-1.2-2.7-2.7v-1.2c0-1.5,1.2-2.7,2.7-2.7h28.8c1.5,0,2.7,1.2,2.7,2.7v1.2
	C109.4,585.3,108.2,586.5,106.8,586.5z"/>
<path class="st0" d="M95.6,568.8v28.8c0,1.5-1.2,2.7-2.7,2.7h-1.2c-1.5,0-2.7-1.2-2.7-2.7v-28.8c0-1.5,1.2-2.7,2.7-2.7H93
	C94.4,566.1,95.6,567.4,95.6,568.8z"/>
<rect x="771.3" y="557.5" transform="matrix(0.7071 0.7071 -0.7071 0.7071 631.8636 -386.963)" class="st2" width="23.5" height="23.5"/>
<circle class="st1" cx="740.9" cy="723.3" r="12.2"/>
<path class="st1" d="M860.1,335.7l-11.1-11.1c-1-1-1-2.7,0-3.7l0.8-0.8c1-1,2.7-1,3.7,0l11.1,11.1c1,1,1,2.7,0,3.7l-0.8,0.8
	C862.8,336.7,861.2,336.7,860.1,335.7z"/>
<path class="st3" d="M675.3,623.3h-302c-7.1,0-12.8-5.8-12.8-12.8V509.5c0-7.1,5.8-12.8,12.8-12.8h302c7.1,0,12.8,5.8,12.8,12.8
	v100.9C688.1,617.5,682.4,623.3,675.3,623.3z"/>
<path class="st4" d="M572.9,725.1H465.4c-8.7,0-15.9-7.1-15.9-15.9V576.3h138.3v133.8C587.9,718.3,581.1,725.1,572.9,725.1z"/>
<line class="st3" x1="477.4" y1="614.7" x2="560" y2="614.7"/>
<line class="st3" x1="477.4" y1="648.5" x2="560" y2="648.5"/>
<line class="st3" x1="477.4" y1="680.5" x2="560" y2="680.5"/>
<circle class="st3" cx="395.7" cy="533.1" r="10"/>
<polygon class="st3" points="611,410.7 611,496.7 430.1,496.7 430.1,378.4 583.8,378.4 583.8,410.7 "/>
<line class="st3" x1="613.1" y1="409.3" x2="585.9" y2="377"/>
<circle class="st0" cx="395.7" cy="533.1" r="6.3"/>
<circle class="st0" cx="234.9" cy="483.3" r="79"/>
<g>
	<path class="st5" d="M170.9,481.4c-0.1,0.3-0.1,0.6-0.1,1.1c0,2.4,1.8,3.9,4.4,3.9c2.7,0,4.6-1.4,4.6-4.1c0-3-2.6-4.3-6.6-4.3v-3.6
		c3.6,0,5.6-1.4,5.6-3.7c0-1.9-1.4-3-3.6-3s-3.8,1.2-3.8,3c0,0.5,0.1,0.9,0.2,1.3l-4.5,1c-0.3-0.7-0.4-1.4-0.4-2
		c0-2,0.8-3.7,2.3-5.1c1.6-1.4,3.6-2.1,6.1-2.1c5.4,0,8.3,2.6,8.3,6.4c0,2.7-1.6,4.8-3.8,5.8c2.9,1,5,3.3,5,6.5c0,2.5-0.9,4.5-2.6,6
		c-1.7,1.5-4,2.2-6.8,2.2c-2.9,0-5.2-0.8-6.8-2.3c-1.6-1.5-2.4-3.4-2.4-5.6c0-0.9,0.1-1.6,0.4-2.3L170.9,481.4z"/>
	<path class="st5" d="M210.8,477c0,4-1.1,7.3-3.3,9.8c-2.2,2.5-5,3.7-8.4,3.7c-3.4,0-6.2-1.2-8.4-3.7c-2.2-2.5-3.3-5.7-3.3-9.8
		c0-4,1.1-7.3,3.3-9.7s5-3.7,8.4-3.7c3.4,0,6.2,1.3,8.4,3.7S210.8,473,210.8,477z M199.1,486c2,0,3.7-0.8,4.9-2.4
		c1.3-1.6,1.9-3.8,1.9-6.5c0-2.8-0.6-5-1.9-6.6c-1.2-1.6-2.9-2.4-4.9-2.4s-3.7,0.8-5,2.4c-1.2,1.6-1.9,3.8-1.9,6.6
		c0,2.8,0.6,4.9,1.9,6.5C195.4,485.2,197.1,486,199.1,486z"/>
	<path class="st5" d="M237.5,477c0,4-1.1,7.3-3.3,9.8c-2.2,2.5-5,3.7-8.4,3.7c-3.4,0-6.2-1.2-8.4-3.7c-2.2-2.5-3.3-5.7-3.3-9.8
		c0-4,1.1-7.3,3.3-9.7s5-3.7,8.4-3.7c3.4,0,6.2,1.3,8.4,3.7S237.5,473,237.5,477z M225.8,486c2,0,3.7-0.8,4.9-2.4
		c1.3-1.6,1.9-3.8,1.9-6.5c0-2.8-0.6-5-1.9-6.6c-1.2-1.6-2.9-2.4-4.9-2.4s-3.7,0.8-5,2.4c-1.2,1.6-1.9,3.8-1.9,6.6
		c0,2.8,0.6,4.9,1.9,6.5C222.1,485.2,223.8,486,225.8,486z"/>
	<path class="st5" d="M270.1,464.1V490h-4.7v-2.6c-1.1,1.8-3.1,3.1-5.8,3.1c-2.6,0-4.7-0.9-6.4-2.6c-1.7-1.7-2.6-4.1-2.6-7.1
		c0-2.9,0.9-5.3,2.7-7c1.8-1.8,3.9-2.7,6.3-2.7c2.7,0,4.6,0.9,5.8,2.8v-9.8H270.1z M260.6,486.1c1.5,0,2.7-0.5,3.7-1.5
		s1.5-2.3,1.5-3.8c0-1.6-0.5-2.8-1.5-3.8s-2.2-1.5-3.7-1.5c-1.5,0-2.7,0.5-3.7,1.5c-1,1-1.4,2.3-1.4,3.8c0,1.5,0.5,2.8,1.4,3.8
		C257.9,485.6,259.1,486.1,260.6,486.1z"/>
	<path class="st5" d="M274.8,497.5v-25.9h4.7v2.6c1.3-1.8,3.7-3.1,6.4-3.1c2.4,0,4.4,0.9,6,2.6c1.6,1.7,2.4,4.1,2.4,7.1
		c0,2.9-0.9,5.2-2.6,7c-1.7,1.8-3.8,2.7-6.3,2.7c-2.5,0-4.5-0.9-6-2.8v9.8H274.8z M284.3,475.5c-1.5,0-2.7,0.5-3.7,1.5
		s-1.5,2.3-1.5,3.8s0.5,2.8,1.5,3.8c1,1,2.2,1.5,3.7,1.5c1.5,0,2.7-0.5,3.7-1.5c1-1,1.5-2.3,1.5-3.8S289,478,288,477
		C287,476,285.8,475.5,284.3,475.5z"/>
	<path class="st5" d="M297.5,469v-4.9h5.1v4.9H297.5z M297.8,490v-18.4h4.7V490H297.8z"/>
</g>
</svg>
