<?xml version="1.0" encoding="utf-8"?>
<!-- Generator: Adobe Illustrator 21.1.0, SVG Export Plug-In . SVG Version: 6.00 Build 0)  -->
<svg version="1.1" id="Layer_1" xmlns="http://www.w3.org/2000/svg" xmlns:xlink="http://www.w3.org/1999/xlink" x="0px" y="0px"
	 viewBox="0 0 1000 1000" style="enable-background:new 0 0 1000 1000;" xml:space="preserve">
<style type="text/css">
	.st0{fill:none;stroke:#02435F;stroke-width:9;stroke-miterlimit:10;}
	.st1{fill:none;stroke:#02435F;stroke-width:7;stroke-miterlimit:10;}
	.st2{fill:#02435F;}
	.st3{fill:#FFC21D;}
	.st4{opacity:0.6;fill:none;stroke:#FFC21D;stroke-width:7;stroke-miterlimit:10;}
	.st5{fill:#FFC21D;stroke:#02435F;stroke-width:2;stroke-miterlimit:10;}
	.st6{fill:#02435F;stroke:#02435F;stroke-width:2;stroke-miterlimit:10;}
	.st7{fill:#FFFFFF;stroke:#02435F;stroke-width:9;stroke-miterlimit:10;}
	.st8{fill:none;stroke:#A6D3F1;stroke-width:9;stroke-miterlimit:10;}
	.st9{fill:none;stroke:#02435F;stroke-width:9;stroke-linecap:round;stroke-miterlimit:10;}
	.st10{enable-background:new    ;}
	.st11{fill-rule:evenodd;clip-rule:evenodd;fill:#202F5B;}
	.st12{fill-rule:evenodd;clip-rule:evenodd;fill:#DEE8FC;}
	.st13{fill:#202F5B;}
</style>
<path class="st0" d="M698.5,579H298.2c-18,0-32.7-14.7-32.7-32.7V282.9h465.7v263.3C731.2,564.2,716.5,579,698.5,579z"/>
<g id="Poster_4_">
	<g>
		
			<ellipse transform="matrix(1 -5.029837e-03 5.029837e-03 1 -1.7758 3.1107)" class="st1" cx="617.6" cy="354.6" rx="25.9" ry="25.8"/>
	</g>
</g>
<path class="st0" d="M712.6,579.1L500.8,380.6c-0.6-0.6-1.6-0.7-2.3-0.2L446.9,417c-0.8,0.5-1.8,0.4-2.4-0.3l-73.8-86.6
	c-0.7-0.8-1.9-0.8-2.7-0.1l-105,112.2"/>
<path class="st2" d="M727,325.5h-56.9c-1.7,0-3-1.4-3-3v-1.9c0-1.7,1.4-3,3-3H727c1.7,0,3,1.4,3,3v1.9
	C730.1,324.1,728.7,325.5,727,325.5z"/>
<path class="st2" d="M315.8,419.9l-47,47c-1,1-2.6,1-3.6,0l0,0c-1-1-1-2.6,0-3.6l47-47c1-1,2.6-1,3.6,0l0,0
	C316.8,417.3,316.8,419,315.8,419.9z"/>
<path class="st2" d="M384.7,351l-47,47c-1,1-2.6,1-3.6,0l0,0c-1-1-1-2.6,0-3.6l47-47c1-1,2.6-1,3.6,0l0,0
	C385.7,348.4,385.7,350,384.7,351z"/>
<path class="st2" d="M600.9,503.2L552.1,458c-1-0.9-1.1-2.6-0.1-3.6l0,0c0.9-1,2.6-1.1,3.6-0.1l48.8,45.1c1,0.9,1.1,2.6,0.1,3.6v0
	C603.5,504,601.9,504.1,600.9,503.2z"/>
<path class="st3" d="M830.8,563.9h-38.6c-1.5,0-2.8-1.3-2.8-2.8v-1.3c0-1.5,1.3-2.8,2.8-2.8h38.6c1.5,0,2.8,1.3,2.8,2.8v1.3
	C833.6,562.6,832.3,563.9,830.8,563.9z"/>
<path class="st2" d="M269.4,191.2h-53c-1.5,0-2.8-1.3-2.8-2.8v-1.3c0-1.5,1.3-2.8,2.8-2.8h53c1.5,0,2.8,1.3,2.8,2.8v1.3
	C272.2,190,271,191.2,269.4,191.2z"/>
<path class="st3" d="M140.5,412.2h-28.8c-1.5,0-2.7-1.2-2.7-2.7v-1.2c0-1.5,1.2-2.7,2.7-2.7h28.8c1.5,0,2.7,1.2,2.7,2.7v1.2
	C143.2,411,142,412.2,140.5,412.2z"/>
<path class="st3" d="M129.4,394.5v28.8c0,1.5-1.2,2.7-2.7,2.7h-1.2c-1.5,0-2.7-1.2-2.7-2.7v-28.8c0-1.5,1.2-2.7,2.7-2.7h1.2
	C128.2,391.8,129.4,393,129.4,394.5z"/>
<path class="st3" d="M189.1,243.5l-20.4-20.4c-1-1-1-2.7,0-3.8l0.8-0.8c1-1,2.7-1,3.8,0l20.4,20.4c1,1,1,2.7,0,3.8l-0.8,0.8
	C191.9,244.5,190.1,244.5,189.1,243.5z"/>
<path class="st3" d="M193.7,223.1l-20.4,20.4c-1,1-2.7,1-3.8,0l-0.8-0.8c-1-1-1-2.7,0-3.8l20.4-20.4c1-1,2.7-1,3.8,0l0.8,0.8
	C194.8,220.3,194.8,222,193.7,223.1z"/>
<rect x="878.9" y="448.1" transform="matrix(0.7071 0.7071 -0.7071 0.7071 585.9968 -495.1149)" class="st4" width="23.5" height="23.5"/>
<path class="st2" d="M707.5,174h-28.8c-1.5,0-2.7-1.2-2.7-2.7v-1.2c0-1.5,1.2-2.7,2.7-2.7h28.8c1.5,0,2.7,1.2,2.7,2.7v1.2
	C710.2,172.8,709,174,707.5,174z"/>
<path class="st2" d="M696.4,156.3v28.8c0,1.5-1.2,2.7-2.7,2.7h-1.2c-1.5,0-2.7-1.2-2.7-2.7v-28.8c0-1.5,1.2-2.7,2.7-2.7h1.2
	C695.2,153.6,696.4,154.8,696.4,156.3z"/>
<path class="st3" d="M471,118.2C471,118.2,471,118.3,471,118.2c0,0-0.1-0.3-0.2-0.4c-3.4-7.1-11.3-10.3-17.8-7.4
	c-6.6,3-9.3,11.4-6,18.6l24.4-11.2"/>
<path class="st2" d="M798.2,350.7l-11.1-11.1c-1-1-1-2.7,0-3.7l0.8-0.8c1-1,2.7-1,3.7,0l11.1,11.1c1,1,1,2.7,0,3.7l-0.8,0.8
	C800.8,351.7,799.2,351.7,798.2,350.7z"/>
<polyline class="st5" points="171.7,728.3 268.3,632.1 336.4,632.1 336.4,700 239.9,796.2 "/>
<g>
	<g>
		<path class="st6" d="M157.4,709.8c-0.7,0-1.4-0.3-1.9-0.8c-1-1-1-2.7,0-3.7l99.2-98.8c0.5-0.5,1.2-0.8,1.9-0.8h71.9
			c1.5,0,2.7,1.2,2.7,2.6s-1.2,2.6-1.7,4.6h-70.8l-99.4,96C158.7,709.5,158,709.8,157.4,709.8z"/>
	</g>
	<g>
		<path class="st6" d="M239.9,802.6c-0.7,0-1.4-0.3-1.9-0.8l-71.9-71.6c-1-1-1-2.7,0-3.7l99.2-98.8c0.5-0.5,1.2-0.8,1.9-0.8h71.9
			c1.5,0,2.7,1.2,2.7,2.6v71.7c0,0.7-0.3,1.4-0.8,1.9l-99.2,98.8C241.3,802.3,240.6,802.6,239.9,802.6z M171.7,728.3l68.2,67.9
			l96.5-96.1v-67.9h-68.2L171.7,728.3z"/>
	</g>
	<circle class="st7" cx="306.4" cy="667.5" r="15.9"/>
</g>
<path class="st8" d="M242.8,528"/>
<path class="st9" d="M304.8,669c67.5-11.6,103.6-53,109.2-103.4c2.8-24.8-3.9-59.5-27.9-77c-35.9-26.1-97.6-3.8-124.1,39.8
	c-27.4,45.2-5.8,78.6-3.4,84.5"/>
<path class="st2" d="M262.6,674.7l-54.7,54.7c-0.6,0.6-1.6,0.6-2.2,0l0,0c-0.6-0.6-0.6-1.6,0-2.2l54.7-54.7c0.6-0.6,1.6-0.6,2.2,0
	l0,0C263.2,673.1,263.2,674.1,262.6,674.7z"/>
<path class="st2" d="M282.6,691.7l-54.7,54.7c-0.6,0.6-1.6,0.6-2.2,0l0,0c-0.6-0.6-0.6-1.6,0-2.2l54.7-54.7c0.6-0.6,1.6-0.6,2.2,0
	l0,0C283.2,690.1,283.2,691.1,282.6,691.7z"/>
<path class="st2" d="M299.9,709.1l-54.7,54.7c-0.6,0.6-1.6,0.6-2.2,0l0,0c-0.6-0.6-0.6-1.6,0-2.2l54.7-54.7c0.6-0.6,1.6-0.6,2.2,0
	l0,0C300.6,707.5,300.6,708.5,299.9,709.1z"/>
<path class="st7" d="M730.2,282.9H264.8v-6.7c0-18,14.7-32.7,32.7-32.7h399.9c18,0,32.7,14.7,32.7,32.7V282.9z"/>
<g id="Shape_503_9_">
	<g id="Rounded_Rectangle_615__x2B__Rounded_Rectangle_620__x2B__Rounded_Rectangle_620_6_" class="st10">
		<defs>
			<path id="SVGID_1_" class="st10" d="M1403.9,168.6l37.4,90V206C1441.3,185.3,1424.6,168.6,1403.9,168.6z"/>
		</defs>
		<clipPath id="SVGID_2_">
			<use xlink:href="#SVGID_1_"  style="overflow:visible;"/>
		</clipPath>
	</g>
	
		<g id="Rounded_Rectangle_617__x2B__Rounded_Rectangle_621__x2B__Rounded_Rectangle_619__x2B__Rounded_Rectangle_621_2_" class="st10">
		<defs>
			<path id="SVGID_3_" class="st10" d="M910.3,669.2c0,20.6,16.7,37.4,37.4,37.4l-37.4-434V669.2z M1403.9,706.6
				c20.6,0,37.4-16.7,37.4-37.4V272.6L1403.9,706.6z"/>
		</defs>
		<clipPath id="SVGID_4_">
			<use xlink:href="#SVGID_3_"  style="overflow:visible;"/>
		</clipPath>
	</g>
	<g id="Shape_503_5_">
		<g>
			<path class="st11" d="M1446.6,254.6v19c5.2-0.5,9.3-4.7,9.3-9.8C1456,258.6,1451.8,254.4,1446.6,254.6z"/>
		</g>
	</g>
</g>
<line class="st12" x1="1372.3" y1="376.6" x2="1372.3" y2="702.6"/>
<g>
	<g>
		<g>
			<path class="st13" d="M1350.8,463.3"/>
		</g>
	</g>
</g>
<circle class="st2" cx="326.6" cy="264.6" r="6.7"/>
<circle class="st2" cx="346.3" cy="264.6" r="6.7"/>
<circle class="st2" cx="365.8" cy="264.6" r="6.7"/>
</svg>
